<?xml version="1.0" encoding="UTF-8" standalone="no"?><!-- Generator: Gravit.io --><svg xmlns="http://www.w3.org/2000/svg" xmlns:xlink="http://www.w3.org/1999/xlink" style="isolation:isolate" viewBox="0 0 345 234" width="345pt" height="234pt"><defs><clipPath id="_clipPath_sH9nWrzHugMkHO1NxpYoICwckYY1Rt0o"><rect width="345" height="234"/></clipPath></defs><g clip-path="url(#_clipPath_sH9nWrzHugMkHO1NxpYoICwckYY1Rt0o)"><g><path d=" M 32.141 165.215 L 43.101 165.215 C 43.284 165.661 43.382 166.138 43.39 166.62 C 43.423 166.925 43.337 167.232 43.151 167.477 C 42.906 167.661 42.6 167.746 42.294 167.716 L 40.102 167.716 Q 39.913 171.064 39.913 178.826 L 39.913 197.02 C 39.996 198.949 39.76 200.878 39.215 202.73 C 38.744 204.019 37.843 205.106 36.665 205.809 C 34.961 206.692 33.049 207.095 31.134 206.975 C 30.081 207.065 29.02 206.911 28.036 206.526 C 27.526 206.172 27.248 205.57 27.308 204.952 C 27.292 204.03 27.576 203.128 28.115 202.381 Q 32.32 203.756 33.426 203.119 Q 34.532 202.481 34.532 196.811 L 34.532 178.567 Q 34.532 171.094 34.343 167.716 L 31.354 167.716 C 31.15 167.229 31.042 166.709 31.035 166.181 C 31.014 165.912 31.104 165.646 31.284 165.444 C 31.531 165.264 31.837 165.182 32.141 165.215 L 32.141 165.215 Z " fill="rgb(135,175,74)"/><path d=" M 46.3 171.851 L 62.96 171.851 C 63.484 171.804 64.011 171.911 64.475 172.16 C 64.791 172.492 64.941 172.95 64.883 173.405 C 64.859 174.277 64.605 175.126 64.146 175.866 C 60.896 174.734 57.461 174.223 54.022 174.362 L 52.328 174.362 C 52.239 175.827 52.199 178.746 52.209 183.1 L 62.392 183.1 C 62.561 183.615 62.645 184.153 62.641 184.695 C 62.675 184.953 62.607 185.214 62.452 185.422 C 62.231 185.575 61.962 185.642 61.695 185.611 L 52.199 185.611 Q 52.199 194.021 52.328 195.904 L 55.058 195.904 C 58.361 196.031 61.66 195.572 64.803 194.549 C 65.21 195.216 65.427 195.981 65.431 196.761 C 65.472 197.25 65.257 197.725 64.863 198.017 C 64.149 198.353 63.357 198.491 62.571 198.415 L 45.632 198.415 C 45.473 198.019 45.389 197.597 45.383 197.17 C 45.366 196.961 45.438 196.754 45.582 196.602 C 45.778 196.459 46.019 196.391 46.26 196.413 L 47.695 196.413 Q 47.834 193.692 47.834 182.513 C 47.834 178.527 47.834 175.637 47.695 173.834 L 45.632 173.834 C 45.474 173.444 45.39 173.029 45.383 172.608 C 45.365 172.393 45.437 172.18 45.582 172.02 C 45.791 171.874 46.048 171.814 46.3 171.851 Z " fill="rgb(135,175,74)"/><path d=" M 81.174 171.562 C 82.008 171.504 82.846 171.558 83.666 171.721 C 83.855 171.841 85.17 175.458 87.591 182.602 C 90.013 189.747 91.657 194.39 92.514 196.383 L 94.228 196.383 C 94.379 196.739 94.461 197.121 94.467 197.509 C 94.526 197.755 94.453 198.014 94.274 198.192 C 94.095 198.371 93.836 198.444 93.59 198.386 L 85.489 198.386 C 85.331 197.996 85.246 197.58 85.24 197.16 C 85.222 196.945 85.294 196.732 85.439 196.572 C 85.634 196.429 85.875 196.361 86.117 196.383 L 87.163 196.383 Q 86.794 194.649 85.3 189.727 L 76.521 189.727 Q 75.156 194.609 74.887 196.383 L 76.691 196.383 C 76.843 196.739 76.924 197.121 76.93 197.509 C 76.989 197.755 76.916 198.014 76.737 198.192 C 76.558 198.371 76.299 198.444 76.053 198.386 L 68.889 198.386 C 68.741 197.994 68.664 197.579 68.659 197.16 C 68.636 196.944 68.709 196.729 68.859 196.572 C 69.057 196.426 69.302 196.359 69.546 196.383 L 70.672 196.383 Q 71.958 192.835 74.937 183.589 Q 77.916 174.342 78.614 172.937 C 79.106 171.998 80.12 171.453 81.174 171.562 Z  M 77.189 187.246 L 84.522 187.246 Q 80.985 175.976 80.726 175.976 Q 80.467 175.976 77.219 187.246 L 77.189 187.246 Z " fill="rgb(135,175,74)"/><path d=" M 100.375 171.851 L 106.563 171.851 Q 109.702 177.511 112.472 182.174 C 114.315 185.283 116.338 188.989 118.51 193.304 L 118.51 182.532 C 118.51 178.547 118.51 175.657 118.381 173.854 L 116.388 173.854 C 116.227 173.465 116.139 173.049 116.129 172.628 C 116.108 172.411 116.185 172.196 116.338 172.04 C 116.528 171.894 116.767 171.826 117.006 171.851 L 124.349 171.851 C 124.501 172.207 124.582 172.59 124.588 172.977 C 124.647 173.223 124.574 173.482 124.395 173.661 C 124.216 173.84 123.958 173.913 123.712 173.854 L 122.137 173.854 C 122.048 175.657 121.998 178.637 121.998 182.821 L 121.998 196.891 C 121.998 197.658 121.888 198.146 121.659 198.346 C 121.178 198.618 120.623 198.73 120.075 198.664 C 119.144 198.729 118.208 198.666 117.295 198.475 Q 116.936 198.296 112.572 191.251 C 109.902 186.986 107.454 182.586 105.238 178.069 Q 105.238 193.762 105.377 196.462 L 107.291 196.462 C 107.446 196.818 107.531 197.2 107.54 197.588 C 107.561 197.834 107.49 198.079 107.34 198.276 C 107.14 198.424 106.891 198.492 106.643 198.465 L 99.409 198.465 C 99.248 198.076 99.16 197.661 99.15 197.24 C 99.129 197.022 99.206 196.807 99.359 196.652 C 99.549 196.506 99.788 196.438 100.027 196.462 L 101.661 196.462 Q 101.79 193.762 101.8 182.582 C 101.8 178.597 101.751 175.707 101.641 173.904 L 99.798 173.904 C 99.637 173.514 99.549 173.099 99.538 172.678 C 99.518 172.461 99.594 172.245 99.748 172.09 C 99.92 171.935 100.144 171.85 100.375 171.851 Z " fill="rgb(135,175,74)"/><path d=" M 149.26 195.277 L 151.322 195.277 C 155.355 195.426 159.381 194.849 163.209 193.573 C 163.712 194.414 163.98 195.373 163.987 196.353 C 164.032 196.961 163.766 197.55 163.279 197.917 C 162.386 198.341 161.394 198.513 160.41 198.415 L 140.999 198.415 C 140.8 197.917 140.692 197.387 140.681 196.851 C 140.668 196.587 140.761 196.329 140.94 196.134 C 141.182 195.96 141.479 195.879 141.777 195.904 L 143.58 195.904 Q 143.74 192.497 143.749 178.537 Q 143.749 171.064 143.55 167.686 L 140.999 167.686 C 140.8 167.198 140.692 166.678 140.681 166.151 C 140.663 165.881 140.756 165.614 140.94 165.414 C 141.18 165.236 141.479 165.155 141.777 165.185 L 152.249 165.185 C 152.449 165.627 152.558 166.105 152.568 166.59 C 152.6 166.896 152.515 167.202 152.329 167.447 C 152.076 167.632 151.764 167.718 151.452 167.686 L 149.26 167.686 C 149.14 169.938 149.09 173.664 149.09 178.826 Q 149.11 192.537 149.26 195.277 Z " fill="rgb(135,175,74)"/><path d=" M 169.188 171.851 L 185.848 171.851 C 186.372 171.804 186.899 171.911 187.363 172.16 C 187.679 172.492 187.83 172.95 187.771 173.405 C 187.748 174.277 187.493 175.126 187.034 175.866 C 183.784 174.734 180.349 174.223 176.91 174.362 L 175.216 174.362 C 175.127 175.827 175.087 178.746 175.097 183.1 L 185.28 183.1 C 185.449 183.615 185.533 184.153 185.529 184.695 C 185.564 184.953 185.496 185.214 185.34 185.422 C 185.119 185.575 184.85 185.642 184.583 185.611 L 175.167 185.611 C 175.167 191.221 175.226 194.649 175.306 195.904 L 178.036 195.904 C 181.339 196.031 184.638 195.572 187.781 194.549 C 188.188 195.216 188.405 195.981 188.409 196.761 C 188.45 197.25 188.235 197.725 187.841 198.017 C 187.123 198.354 186.328 198.492 185.539 198.415 L 168.6 198.415 C 168.441 198.019 168.356 197.597 168.351 197.17 C 168.334 196.961 168.406 196.754 168.55 196.602 C 168.746 196.459 168.987 196.391 169.228 196.413 L 170.663 196.413 Q 170.792 193.692 170.802 182.513 C 170.802 178.527 170.802 175.637 170.663 173.834 L 168.6 173.834 C 168.442 173.444 168.357 173.029 168.351 172.608 C 168.333 172.393 168.405 172.18 168.55 172.02 C 168.737 171.893 168.962 171.833 169.188 171.851 Z " fill="rgb(135,175,74)"/><path d=" M 203.395 171.472 C 205.361 171.39 207.33 171.557 209.254 171.971 C 210.183 172.14 210.866 172.939 210.888 173.884 C 210.883 174.771 210.503 175.614 209.842 176.205 C 207.474 175.045 204.885 174.406 202.249 174.332 C 200.999 174.212 199.75 174.567 198.752 175.328 C 198.055 176.052 197.693 177.036 197.755 178.039 C 197.708 179.132 198.154 180.19 198.971 180.918 C 200.361 181.92 201.931 182.648 203.594 183.061 C 205.771 183.632 207.833 184.572 209.692 185.841 C 211.077 186.837 211.805 188.571 211.884 190.902 C 212.021 193.196 211.018 195.41 209.204 196.821 Q 206.534 198.814 201.024 198.814 C 199.069 198.875 197.114 198.695 195.204 198.276 C 193.879 197.907 193.212 197.28 193.212 196.283 C 193.225 195.367 193.636 194.501 194.338 193.912 C 196.774 195.276 199.517 195.999 202.309 196.014 C 203.729 196.139 205.152 195.811 206.374 195.077 C 207.219 194.37 207.669 193.296 207.58 192.198 C 207.664 190.805 206.999 189.472 205.836 188.7 C 204.099 187.665 202.233 186.864 200.286 186.319 C 198.336 185.817 196.549 184.822 195.095 183.429 C 194.019 182.197 193.459 180.599 193.53 178.965 C 193.449 176.827 194.402 174.779 196.091 173.465 Q 198.602 171.472 203.395 171.472 Z " fill="rgb(135,175,74)"/><path d=" M 229.322 195.964 C 231.529 195.993 233.695 195.369 235.549 194.171 C 236.164 194.758 236.522 195.563 236.546 196.413 C 236.546 197.14 235.709 197.718 234.035 198.156 C 232.06 198.62 230.035 198.838 228.007 198.804 C 224.26 198.804 221.49 197.927 219.716 196.164 C 217.943 194.4 217.046 191.181 217.046 186.548 Q 217.046 178.776 220.185 175.119 Q 223.323 171.462 229.401 171.462 C 231.126 171.398 232.851 171.582 234.523 172.01 C 235.679 172.369 236.257 173.007 236.257 173.854 C 236.207 174.68 235.818 175.448 235.181 175.976 C 233.1 174.921 230.808 174.349 228.475 174.302 C 226.512 174.183 224.627 175.088 223.493 176.694 Q 221.819 179.065 221.819 184.755 C 221.819 188.949 222.407 191.859 223.572 193.503 C 224.738 195.147 226.681 195.964 229.322 195.964 Z " fill="rgb(135,175,74)"/><path d=" M 259.194 173.854 L 256.992 173.854 C 256.831 173.465 256.744 173.049 256.733 172.628 C 256.712 172.411 256.789 172.196 256.942 172.04 C 257.135 171.899 257.372 171.832 257.61 171.851 L 265.123 171.851 C 265.275 172.207 265.356 172.59 265.362 172.977 C 265.421 173.223 265.348 173.482 265.169 173.661 C 264.99 173.84 264.731 173.913 264.485 173.854 L 263.1 173.854 Q 263.011 176.564 263.021 186.937 Q 263.021 193.912 260.32 196.363 C 258.517 197.997 255.807 198.804 252.18 198.804 Q 247.536 198.804 245.643 197.04 Q 243.75 195.277 243.76 190.065 Q 243.76 176.584 243.6 173.874 L 241.926 173.874 C 241.784 173.48 241.706 173.066 241.697 172.648 C 241.679 172.433 241.751 172.22 241.897 172.06 C 242.092 171.917 242.333 171.849 242.574 171.871 L 250.157 171.871 C 250.32 172.224 250.408 172.608 250.416 172.997 C 250.437 173.243 250.366 173.488 250.217 173.684 C 250.016 173.833 249.767 173.9 249.519 173.874 L 248.254 173.874 Q 248.104 177.072 248.094 187.016 C 248.094 190.753 248.573 193.184 249.509 194.3 C 250.559 195.474 252.093 196.096 253.664 195.984 Q 256.873 195.984 258.098 194.29 C 258.915 193.164 259.324 191.032 259.324 187.913 Q 259.284 177.042 259.194 173.854 Z " fill="rgb(135,175,74)"/><path d=" M 277.249 196.383 L 280.029 196.383 C 280.181 196.739 280.263 197.121 280.269 197.509 C 280.327 197.755 280.254 198.014 280.076 198.192 C 279.897 198.371 279.638 198.444 279.392 198.386 L 270.245 198.386 C 270.084 197.996 269.996 197.581 269.986 197.16 C 269.965 196.943 270.041 196.727 270.195 196.572 C 270.377 196.44 270.598 196.373 270.823 196.383 L 272.596 196.383 Q 272.756 193.682 272.756 182.503 C 272.756 178.517 272.706 175.627 272.596 173.824 L 270.334 173.824 C 270.191 173.431 270.114 173.017 270.105 172.598 C 270.084 172.381 270.161 172.166 270.314 172.01 C 270.504 171.864 270.743 171.796 270.982 171.821 L 279.372 171.821 Q 285.35 171.821 287.811 173.455 C 289.514 174.601 290.472 176.57 290.322 178.617 C 290.322 182.204 288.17 184.665 283.866 185.97 C 285.058 186.323 286.106 187.05 286.855 188.043 C 287.816 189.389 288.628 190.835 289.276 192.357 C 289.741 193.605 290.415 194.764 291.269 195.785 C 291.856 196.245 292.599 196.459 293.342 196.383 C 293.611 197.319 293.581 197.947 293.242 198.276 C 292.482 198.714 291.6 198.889 290.731 198.774 C 289.589 198.855 288.445 198.649 287.403 198.176 C 286.735 197.768 286.028 196.343 285.291 193.882 C 284.843 192.026 284.056 190.269 282.969 188.7 C 282.094 187.668 280.782 187.111 279.432 187.196 C 278.627 187.197 277.824 187.264 277.03 187.395 Q 277.14 194.141 277.249 196.383 Z  M 277.09 184.745 L 278.724 184.745 C 280.514 184.861 282.298 184.449 283.856 183.559 C 285.024 182.768 285.687 181.419 285.599 180.012 C 285.724 178.49 285.143 176.995 284.025 175.956 C 282.715 175.016 281.12 174.558 279.511 174.661 C 278.753 174.65 277.995 174.716 277.249 174.86 C 277.15 175.976 277.09 178.607 277.09 182.742 L 277.09 184.745 Z " fill="rgb(135,175,74)"/><path d=" M 298.523 171.851 L 315.173 171.851 C 315.7 171.804 316.23 171.912 316.698 172.16 C 317.014 172.492 317.164 172.95 317.106 173.405 C 317.083 174.277 316.828 175.126 316.369 175.866 C 313.118 174.734 309.684 174.224 306.245 174.362 L 304.551 174.362 C 304.462 175.827 304.422 178.746 304.432 183.1 L 314.665 183.1 C 314.834 183.615 314.918 184.153 314.914 184.695 C 314.948 184.953 314.88 185.214 314.725 185.422 C 314.501 185.577 314.228 185.644 313.957 185.611 L 304.462 185.611 C 304.462 191.221 304.521 194.649 304.601 195.904 L 307.321 195.904 C 310.627 196.032 313.93 195.573 317.076 194.549 C 317.48 195.217 317.694 195.981 317.694 196.761 C 317.739 197.248 317.528 197.724 317.136 198.017 C 316.418 198.354 315.623 198.492 314.834 198.415 L 297.895 198.415 C 297.736 198.019 297.651 197.597 297.646 197.17 C 297.625 196.96 297.698 196.752 297.845 196.602 C 298.041 196.459 298.282 196.391 298.523 196.413 L 299.958 196.413 Q 300.087 193.692 300.097 182.513 C 300.097 178.527 300.097 175.637 299.958 173.834 L 297.895 173.834 C 297.737 173.444 297.653 173.029 297.646 172.608 C 297.623 172.392 297.696 172.177 297.845 172.02 C 298.043 171.884 298.284 171.824 298.523 171.851 Z " fill="rgb(135,175,74)"/><path d=" M 57.231 51.265 C 57.649 51.554 58.227 51.952 58.825 52.311 L 60.579 53.397 C 61.754 54.114 62.95 54.832 64.156 55.519 C 66.557 56.924 69.028 58.269 71.509 59.575 Q 78.982 63.491 86.754 66.878 Q 94.526 70.266 102.518 73.106 Q 110.489 75.936 118.71 78.208 C 124.18 79.682 129.67 80.998 135.25 82.074 C 140.83 83.15 146.41 84.067 152.05 84.615 C 163.333 85.896 174.711 86.133 186.037 85.322 C 197.428 84.494 208.724 82.67 219.796 79.872 C 230.926 77.105 241.773 73.309 252.199 68.532 C 262.67 63.722 272.617 57.845 281.883 50.996 C 286.527 47.556 290.962 43.843 295.165 39.876 C 299.413 35.93 303.316 31.63 306.833 27.022 C 303.572 31.84 299.905 36.37 295.872 40.563 C 291.86 44.8 287.598 48.792 283.108 52.52 C 274.066 60.012 264.272 66.547 253.883 72.02 C 243.474 77.514 232.576 82.027 221.331 85.501 C 210.051 89.029 198.485 91.566 186.765 93.084 C 174.991 94.588 163.103 95.005 151.252 94.33 C 145.274 94.061 139.395 93.413 133.496 92.656 C 127.598 91.898 121.749 90.792 115.93 89.567 C 110.11 88.341 104.341 86.827 98.622 85.163 C 92.902 83.499 87.253 81.605 81.683 79.533 C 76.113 77.46 70.563 75.189 65.112 72.707 C 62.382 71.462 59.672 70.177 56.982 68.801 Q 54.989 67.805 52.946 66.699 L 50.953 65.593 C 50.256 65.194 49.638 64.846 48.831 64.357 L 48.831 64.357 C 45.147 62.129 43.967 57.335 46.195 53.651 C 48.424 49.967 53.217 48.787 56.902 51.015 C 56.962 51.085 57.111 51.175 57.231 51.265 Z " fill="rgb(135,175,74)"/><path d=" M 59.323 54.782 C 60.17 55.778 61.206 56.934 62.183 58.01 L 65.172 61.279 C 67.215 63.441 69.277 65.593 71.39 67.705 Q 77.717 74.073 84.343 80.121 Q 90.969 86.169 97.924 91.908 C 102.558 95.705 107.271 99.411 112.093 102.979 C 116.916 106.546 121.808 109.954 126.85 113.232 C 129.341 114.906 131.912 116.42 134.453 118.024 C 136.994 119.629 139.584 121.113 142.215 122.528 C 152.624 128.425 163.526 133.406 174.798 137.415 C 180.428 139.407 186.159 141.103 191.966 142.496 L 200.814 144.31 L 205.248 145.227 L 209.712 145.894 C 212.702 146.333 215.691 146.811 218.68 147.21 L 227.648 148.066 C 230.637 148.425 233.626 148.455 236.685 148.614 L 241.219 148.824 C 242.734 148.913 244.208 148.824 245.763 148.824 C 257.893 148.935 270.012 148.031 281.992 146.123 C 284.982 145.565 287.971 145.127 290.96 144.469 C 293.949 143.812 296.939 143.214 299.848 142.407 C 305.766 140.951 311.576 139.087 317.236 136.827 C 311.687 139.392 305.967 141.569 300.117 143.343 C 297.208 144.34 294.248 145.067 291.289 145.894 C 288.33 146.721 285.31 147.319 282.321 148.037 C 270.336 150.613 258.158 152.189 245.912 152.75 C 244.378 152.809 242.843 152.969 241.309 152.959 L 236.685 152.959 C 233.606 152.959 230.527 153.098 227.448 152.899 L 218.202 152.501 C 215.133 152.261 212.064 151.933 208.985 151.654 L 204.371 151.215 L 199.798 150.518 L 190.621 149.133 C 184.487 148.011 178.417 146.564 172.436 144.798 C 160.492 141.25 148.877 136.676 137.721 131.127 C 134.911 129.792 132.191 128.298 129.411 126.883 C 126.631 125.468 123.941 123.893 121.28 122.329 C 115.87 119.25 110.629 115.922 105.427 112.524 C 100.226 109.126 95.164 105.549 90.162 101.853 C 85.16 98.156 80.268 94.34 75.455 90.404 C 70.642 86.468 65.929 82.432 61.316 78.248 C 58.994 76.155 56.722 74.033 54.451 71.87 L 51.083 68.592 C 49.947 67.456 48.881 66.4 47.685 65.135 C 44.864 61.987 45.063 57.166 48.133 54.261 C 51.202 51.356 56.027 51.424 59.014 54.413 L 59.283 54.712 L 59.323 54.782 Z " fill="rgb(135,175,74)"/><path d=" M 27.637 60.302 C 28.343 56.17 29.67 52.169 31.573 48.435 C 32.524 46.525 33.634 44.698 34.891 42.974 C 36.17 41.213 37.611 39.575 39.195 38.082 C 42.434 35.105 46.136 32.675 50.156 30.888 C 52.167 29.977 54.234 29.195 56.344 28.546 C 57.4 28.237 58.466 27.938 59.562 27.679 Q 60.369 27.49 61.206 27.321 C 61.784 27.211 62.292 27.121 63 27.032 L 63.149 27.032 C 65.351 26.757 67.358 28.318 67.633 30.519 C 67.908 32.72 66.347 34.728 64.146 35.003 C 63.904 35.028 63.66 35.028 63.418 35.003 C 63.1 35.003 62.581 35.003 62.133 35.003 C 61.685 35.003 61.196 35.003 60.728 35.073 C 59.781 35.133 58.825 35.242 57.868 35.362 C 55.959 35.623 54.068 36.009 52.209 36.518 C 48.464 37.497 44.904 39.079 41.667 41.201 C 40.051 42.298 38.543 43.546 37.163 44.927 C 35.739 46.331 34.439 47.855 33.277 49.481 C 30.862 52.783 28.961 56.431 27.637 60.302 Z " fill="rgb(135,175,74)"/></g></g></svg>